<svg width="30" height="30" viewBox="0 0 30 30" fill="none" xmlns="http://www.w3.org/2000/svg">
<path id="Vector" d="M14.0225 0H16.0101C16.3785 0.0455098 16.7424 0.0819189 17.1108 0.136531C19.9624 0.51261 22.6371 1.7311 24.7929 3.63622C28.8273 7.22239 30.5147 11.737 29.8643 17.0889C29.5297 19.9422 28.3188 22.6215 26.3985 24.7573C22.5915 29.0352 17.8158 30.71 12.1895 29.727C8.55116 29.0998 5.29371 27.0953 3.09287 24.1293C1.60736 22.2335 0.623412 19.9937 0.231969 17.6168C0.141003 17.0798 0.0773216 16.5382 0 16.0012V14.0079C0 13.9123 0.0454949 13.8168 0.0545916 13.7212C0.127365 13.2024 0.163748 12.6745 0.263811 12.1602C0.851178 9.02953 2.43566 6.17324 4.7803 4.01851C6.88336 2.02899 9.53071 0.710875 12.3851 0.232097C12.9445 0.154731 13.4812 0.0773666 14.0225 0ZM25.0158 23.6105C27.2695 21.0161 28.4194 17.6426 28.2196 14.211C28.0199 10.7795 26.4864 7.56227 23.9469 5.24727C22.5921 3.99975 20.9912 3.04987 19.2472 2.45877C17.5033 1.86768 15.6551 1.64845 13.8214 1.81521C11.9877 1.98197 10.2092 2.53101 8.60036 3.42701C6.99153 4.32301 5.588 5.54611 4.4801 7.0176C0.0136479 12.8884 1.75111 20.1517 5.02136 23.5832C5.44388 21.9707 6.24679 20.4833 7.36269 19.2456C8.47859 18.0079 9.87492 17.056 11.4345 16.47C10.673 15.9384 10.0369 15.2466 9.57079 14.4431C9.10468 13.6396 8.81983 12.7438 8.73619 11.8185C8.65256 10.8933 8.77217 9.96089 9.08665 9.08675C9.40112 8.21261 9.90286 7.41786 10.5567 6.75819C11.7536 5.58326 13.3653 4.9281 15.042 4.93492C16.7187 4.94173 18.325 5.60998 19.5123 6.7946C20.1572 7.4561 20.6506 8.25005 20.9582 9.12138C21.2659 9.99271 21.3804 10.9206 21.2938 11.8406C21.2073 12.7607 20.9218 13.6508 20.4571 14.4494C19.9924 15.248 19.3596 15.9359 18.6027 16.4654C20.1639 17.0578 21.5608 18.0156 22.6765 19.2586C23.7922 20.5016 24.5943 21.9938 25.0158 23.6105ZM15.3506 28.2434C15.7554 28.2024 16.4968 28.1705 17.2245 28.0477C19.4667 27.6776 21.5719 26.7233 23.3284 25.2807C23.3706 25.2358 23.4032 25.1828 23.4243 25.1249C23.4454 25.067 23.4546 25.0054 23.4512 24.9439C23.253 23.3864 22.6085 21.9196 21.5955 20.7206C20.8866 19.8399 20.0053 19.1136 19.0058 18.5861C18.0062 18.0586 16.9094 17.7412 15.7827 17.6532C13.715 17.4381 11.6427 18.0155 9.98358 19.2688C9.051 19.9331 8.26546 20.7828 7.67615 21.7648C7.08683 22.7468 6.70641 23.8399 6.55869 24.9758C6.55553 25.0325 6.56488 25.0892 6.58611 25.1419C6.60733 25.1946 6.6399 25.242 6.68149 25.2807C9.13397 27.2559 12.2029 28.3048 15.3506 28.2434ZM19.5669 11.2364C19.5586 10.0319 19.0767 8.87922 18.2255 8.02755C17.3743 7.17588 16.2223 6.69373 15.0186 6.68538C13.8145 6.69255 12.6618 7.17432 11.8103 8.02625C10.9589 8.87817 10.4774 10.0316 10.4703 11.2364C10.4703 12.4433 10.9495 13.6009 11.8024 14.4544C12.6554 15.3079 13.8123 15.7873 15.0186 15.7873C16.2249 15.7873 17.3818 15.3079 18.2347 14.4544C19.0877 13.6009 19.5669 12.4433 19.5669 11.2364Z" fill="white"/>
</svg>
